<svg width="32" height="34" viewBox="0 0 32 34" fill="none" xmlns="http://www.w3.org/2000/svg">
<rect y="2" width="32" height="32" rx="5" fill="#393939"/>
<path d="M20.6706 16.976C20.652 16.6773 20.6426 16.2293 20.6426 15.632V14.568C20.6426 13.8587 20.624 13.3267 20.5866 12.972C20.5493 12.6733 20.5306 11.8987 20.5306 10.648C20.5306 10.2 20.6613 9.85467 20.9226 9.612C21.2026 9.35067 21.576 9.22 22.0426 9.22C22.64 9.22 23.0413 9.35067 23.2466 9.612C23.452 9.87333 23.5546 10.3027 23.5546 10.9V11.964L23.5266 15.044C23.508 15.6413 23.4986 16.5373 23.4986 17.732L23.5266 20.028C23.5453 20.3827 23.5546 20.8773 23.5546 21.512C23.5546 22.016 23.5733 22.7347 23.6106 23.668C23.648 24.5267 23.6666 25.1707 23.6666 25.6C23.6666 25.9547 23.564 26.2813 23.3586 26.58C23.172 26.8787 22.9106 27.028 22.5746 27.028C21.268 27.028 20.6146 26.5893 20.6146 25.712C20.6146 25.2267 20.6333 24.6853 20.6706 24.088C20.708 23.6587 20.7266 23.0053 20.7266 22.128C20.7266 21.512 20.708 20.6253 20.6706 19.468C19.7933 19.5427 18.2813 19.58 16.1346 19.58C14.7906 19.58 13.7453 19.58 12.9986 19.58C12.252 19.5613 11.7106 19.5147 11.3746 19.44L11.3466 22.66C11.3466 22.8653 11.3933 23.416 11.4866 24.312C11.58 24.9093 11.6266 25.432 11.6266 25.88C11.6266 26.16 11.4586 26.4307 11.1226 26.692C10.8053 26.9347 10.5066 27.056 10.2266 27.056C9.55464 27.056 9.09731 26.8973 8.85464 26.58C8.61197 26.244 8.49064 25.74 8.49064 25.068L8.46264 22.856C8.44397 22.5947 8.43464 22.2307 8.43464 21.764C8.43464 21.0733 8.41597 20.1307 8.37864 18.936C8.34131 17.8533 8.32264 17.0693 8.32264 16.584C8.32264 15.856 8.34131 14.8387 8.37864 13.532C8.41597 12.3 8.43464 11.3853 8.43464 10.788C8.43464 10.1907 8.58397 9.78933 8.88264 9.584C9.18131 9.37867 9.51731 9.276 9.89064 9.276C10.936 9.276 11.4586 9.62133 11.4586 10.312C11.4586 11.544 11.4306 12.72 11.3746 13.84C11.3373 15.2587 11.3186 16.2947 11.3186 16.948C11.86 17.0787 12.4293 17.1627 13.0266 17.2C13.624 17.2373 14.464 17.256 15.5466 17.256C17.7493 17.256 19.4573 17.1627 20.6706 16.976Z" fill="#F1F1F1"/>
</svg>
