<svg width="64" height="64" viewBox="0 0 64 64" fill="none" xmlns="http://www.w3.org/2000/svg">
<path d="M18.0402 27.9482C18.0402 28.7363 18.1202 29.3763 18.2722 29.8483C18.4402 30.3163 18.6562 30.8283 18.9522 31.3843C19.0467 31.5312 19.098 31.7017 19.1002 31.8763C19.1002 32.0883 18.9722 32.3043 18.7002 32.5163L17.3562 33.4123C17.1949 33.5288 17.003 33.5955 16.8042 33.6043C16.5882 33.6043 16.3762 33.5003 16.1642 33.3083C15.8767 32.999 15.6195 32.6628 15.3962 32.3043C15.1582 31.894 14.938 31.4736 14.7362 31.0443C13.0761 33.0083 10.9921 33.9923 8.48005 33.9923C6.69202 33.9923 5.26399 33.4763 4.22398 32.4523C3.17996 31.4283 2.64795 30.0603 2.64795 28.3522C2.64795 26.5362 3.28796 25.0642 4.58398 23.9522C5.884 22.8402 7.60803 22.2881 9.80007 22.2881C10.5201 22.2881 11.2681 22.3521 12.0561 22.4561C12.8441 22.5641 13.6561 22.7362 14.5042 22.9282V21.3681C14.5042 19.7441 14.1641 18.6121 13.5041 17.9521C12.8241 17.2881 11.6721 16.9681 10.0321 16.9681C9.28806 16.9681 8.52405 17.0561 7.73604 17.2481C6.95311 17.4344 6.18448 17.6763 5.436 17.9721C5.19434 18.0815 4.94581 18.175 4.69198 18.2521C4.58199 18.2884 4.46765 18.3099 4.35198 18.3161C4.05197 18.3161 3.90397 18.1001 3.90397 17.6521V16.604C3.90397 16.264 3.94397 16.004 4.05197 15.86C4.21316 15.6638 4.41887 15.5088 4.65198 15.408C5.392 15.024 6.28801 14.704 7.33203 14.448C8.37205 14.168 9.48007 14.044 10.6521 14.044C13.1841 14.044 15.0362 14.62 16.2282 15.772C17.4002 16.9241 17.9962 18.6761 17.9962 21.0281V27.9482H18.0362H18.0402ZM9.39607 31.1923C10.0961 31.1923 10.8201 31.0643 11.5881 30.8083C12.3521 30.5523 13.0361 30.0803 13.6081 29.4403C13.9511 29.0473 14.1989 28.5805 14.3321 28.0762C14.4602 27.5602 14.5482 26.9442 14.5482 26.2162V25.3202C13.9021 25.1635 13.2477 25.0433 12.5881 24.9602C11.9249 24.8744 11.2569 24.8303 10.5881 24.8282C9.16006 24.8282 8.11604 25.1082 7.41603 25.6842C6.71202 26.2602 6.37601 27.0722 6.37601 28.1402C6.37601 29.1403 6.62802 29.8883 7.16003 30.4043C7.67204 30.9363 8.41605 31.1923 9.39607 31.1923ZM26.4884 33.5003C26.1044 33.5003 25.8483 33.4363 25.6803 33.2843C25.5083 33.1563 25.3603 32.8603 25.2323 32.4523L20.2323 15.944C20.1336 15.6674 20.0678 15.38 20.0362 15.088C20.0362 14.748 20.2083 14.556 20.5483 14.556H22.6363C23.0363 14.556 23.3163 14.62 23.4643 14.768C23.6363 14.896 23.7643 15.196 23.8923 15.6L27.4684 29.7403L30.7884 15.6C30.8924 15.176 31.0204 14.896 31.1884 14.768C31.4451 14.6108 31.7441 14.5368 32.0445 14.556H33.7445C34.1525 14.556 34.4245 14.62 34.5965 14.768C34.7685 14.896 34.9165 15.196 35.0005 15.6L38.3646 29.9123L42.0446 15.6C42.1129 15.2903 42.2604 15.0036 42.4726 14.768C42.7205 14.6109 43.0118 14.5367 43.3046 14.556H45.2847C45.6247 14.556 45.8167 14.728 45.8167 15.088C45.8167 15.196 45.7927 15.304 45.7767 15.432C45.7423 15.6136 45.6914 15.7917 45.6247 15.964L40.4926 32.4723C40.3646 32.9003 40.2166 33.1803 40.0486 33.3083C39.807 33.4628 39.5228 33.537 39.2366 33.5203H37.4085C37.0045 33.5203 36.7285 33.4563 36.5565 33.3083C36.3845 33.1563 36.2365 32.8803 36.1525 32.4523L32.8525 18.6801L29.5724 32.4363C29.4684 32.8643 29.3404 33.1403 29.1724 33.2883C29.0004 33.4403 28.7004 33.5043 28.3204 33.5043H26.4884V33.5003ZM53.8408 34.0763C52.7362 34.0778 51.6352 33.9489 50.5608 33.6923C49.4968 33.4363 48.6687 33.1563 48.1127 32.8363C47.7727 32.6443 47.5407 32.4323 47.4527 32.2363C47.3714 32.0481 47.3292 31.8453 47.3287 31.6403V30.5523C47.3287 30.1043 47.4967 29.8883 47.8167 29.8883C47.9474 29.8886 48.0771 29.9102 48.2007 29.9523C48.3287 29.9963 48.5207 30.0803 48.7327 30.1683C49.4528 30.4883 50.2448 30.7443 51.0728 30.9163C51.9248 31.0843 52.7528 31.1723 53.6048 31.1723C54.9488 31.1723 55.9889 30.9363 56.7129 30.4683C57.0607 30.2577 57.3465 29.9587 57.5411 29.6018C57.7357 29.2448 57.8323 28.8427 57.8209 28.4362C57.8281 28.1618 57.7809 27.8887 57.682 27.6327C57.5832 27.3766 57.4346 27.1426 57.2449 26.9442C56.8649 26.5362 56.1409 26.1722 55.0969 25.8322L52.0088 24.8722C50.4568 24.3802 49.3048 23.6522 48.6047 22.6921C47.9195 21.8051 47.5455 20.717 47.5407 19.5961C47.5407 18.7001 47.7327 17.9081 48.1127 17.2241C48.4967 16.544 49.0087 15.944 49.6488 15.472C50.2888 14.984 51.0088 14.62 51.8608 14.364C52.7128 14.108 53.6048 14 54.5408 14C55.0129 14 55.5009 14.02 55.9689 14.084C56.4569 14.148 56.9049 14.236 57.3529 14.324C57.7769 14.428 58.1849 14.532 58.5649 14.664C58.9489 14.792 59.2449 14.92 59.4609 15.048C59.7121 15.1741 59.931 15.3561 60.1009 15.58C60.2379 15.7883 60.3038 16.0352 60.2889 16.284V17.2881C60.2889 17.7361 60.1209 17.9721 59.8009 17.9721C59.5176 17.9397 59.2432 17.8528 58.9929 17.7161C57.7066 17.1458 56.3117 16.8619 54.9048 16.884C53.6928 16.884 52.7328 17.0761 52.0728 17.4841C51.4128 17.8841 51.0728 18.5081 51.0728 19.3841C51.0728 19.9801 51.2848 20.4921 51.7128 20.9001C52.1368 21.3041 52.9248 21.7081 54.0528 22.0721L57.0769 23.0322C58.6089 23.5242 59.7169 24.2082 60.3769 25.0842C61.037 25.9602 61.353 26.9642 61.353 28.0762C61.353 28.9963 61.165 29.8243 60.8009 30.5523C60.4241 31.2828 59.8948 31.9239 59.2489 32.4323C58.5889 32.9643 57.8009 33.3523 56.8849 33.6283C55.9249 33.9283 54.9248 34.0763 53.8408 34.0763Z" fill="#252F3E"/>
<path fill-rule="evenodd" clip-rule="evenodd" d="M57.8607 44.4525C50.8606 49.6406 40.6844 52.3967 31.9363 52.3967C19.6761 52.3967 8.62787 47.8486 0.283726 40.2885C-0.376285 39.6884 0.219725 38.8764 1.00374 39.3484C10.0319 44.6005 21.1641 47.7846 32.6843 47.7846C40.4484 47.7846 48.9846 46.1606 56.8407 42.8285C58.0127 42.2965 59.0127 43.5965 57.8607 44.4525Z" fill="#FF9900"/>
<path fill-rule="evenodd" clip-rule="evenodd" d="M60.7766 41.1205C59.8846 39.9725 54.8605 40.5685 52.5845 40.8445C51.9045 40.9325 51.7965 40.3325 52.4125 39.8845C56.4126 37.0644 62.9927 37.8764 63.7567 38.8164C64.5247 39.7765 63.5447 46.3766 59.7966 49.5366C59.2246 50.0286 58.6726 49.7766 58.9246 49.1366C59.7766 47.0166 61.6727 42.2565 60.7766 41.1245V41.1205Z" fill="#FF9900"/>
</svg>
