<svg width="64" height="64" viewBox="0 0 64 64" fill="none" xmlns="http://www.w3.org/2000/svg">
<path d="M29.608 53.9245C37.8305 52.472 44.6218 51.27 44.6998 51.2535L44.8416 51.2234L37.0788 41.9897C32.8092 36.9112 29.3159 32.7364 29.3159 32.7123C29.3159 32.6667 37.3317 10.5929 37.3768 10.5143C37.3919 10.4881 42.8469 19.906 50.6001 33.344C57.8588 45.9249 63.8432 56.2979 63.8989 56.3951L64 56.5718L39.329 56.5687L14.658 56.5655L29.608 53.9245ZM0 51.1087C0 51.0957 3.65782 44.746 8.1285 36.9983L16.257 22.9115L25.7298 14.9618C30.9399 10.5896 35.2167 7.00688 35.2338 7.00017C35.251 6.99382 35.1824 7.16632 35.0815 7.38368C34.9806 7.60105 30.3518 17.5293 24.7954 29.4464L14.6927 51.1139L7.34634 51.1231C3.30586 51.1282 0 51.1217 0 51.1087Z" fill="#0089D6"/>
</svg>
