<svg width="64" height="64" viewBox="0 0 64 64" fill="none" xmlns="http://www.w3.org/2000/svg">
<path d="M0 7.07429C0 7.26031 1.37873 10.0506 1.54287 10.1929C1.57569 10.2257 1.71794 10.4445 1.86019 10.6853C2.00244 10.926 2.24317 11.2433 2.37448 11.3965C2.51673 11.5497 2.62616 11.7029 2.62616 11.7357C2.62616 11.7685 2.72464 11.9217 2.85594 12.064C2.97631 12.2062 3.33741 12.622 3.64379 12.9831C5.05535 14.6245 7.09062 16.5285 9.24626 18.2136C9.31191 18.2573 9.47605 18.3887 9.6183 18.509C9.76055 18.6294 9.91374 18.7279 9.94657 18.7279C9.97939 18.7279 10.1435 18.8373 10.2858 18.9686C10.6797 19.3187 11.0736 19.5923 13.1417 20.971C15.0566 22.2403 15.0895 22.2732 15.8664 22.7328C16.1399 22.8969 16.4244 23.1048 16.501 23.1814C16.5776 23.258 16.698 23.3236 16.7527 23.3236C16.8293 23.3236 17.9345 23.9473 18.4925 24.3084C18.5801 24.3741 18.777 24.4835 18.9302 24.5492C19.3241 24.7461 21.5126 26.0702 22.1582 26.5079C24.0184 27.7553 26.371 29.889 27.0822 30.9504C27.3777 31.3991 27.5746 31.5413 27.5746 31.3006C27.5746 31.1583 27.126 30.3377 26.9509 30.1298C26.8743 30.0532 26.8087 29.9328 26.8087 29.8781C26.8087 29.7577 26.1521 28.6854 25.9552 28.4775C25.8786 28.3899 25.7254 28.193 25.6269 28.0398C25.3315 27.5911 24.9704 27.1863 23.8543 26.0592C22.5083 24.7243 22.3552 24.6039 20.4621 23.1923C19.5867 22.5467 18.8317 21.9777 18.7661 21.923C18.7114 21.8792 18.4597 21.7151 18.219 21.5729C17.9782 21.4306 17.7594 21.2774 17.7266 21.2446C17.6937 21.2118 17.4749 21.0586 17.2342 20.9163C16.9934 20.7741 16.3041 20.3364 15.7022 19.9425C14.4876 19.1437 14.2797 19.0124 13.9296 18.8263C13.7873 18.7497 13.6779 18.6513 13.6779 18.5966C13.6779 18.5528 13.6232 18.509 13.5685 18.509C13.5028 18.509 13.2402 18.3558 12.9885 18.1698C12.5618 17.8634 11.2487 16.9333 10.8001 16.6269C10.6797 16.5503 10.4937 16.3971 10.3733 16.2877C10.242 16.1892 10.1107 16.1017 10.0779 16.1017C10.045 16.1017 9.89186 15.9923 9.73866 15.85C9.58547 15.7187 9.15872 15.3686 8.78668 15.0841C8.41464 14.7996 8.0426 14.5041 7.96601 14.4275C7.88941 14.3509 7.5502 14.0774 7.22193 13.8148C5.81037 12.7096 0.995751 8.09193 0.514289 7.38068C0.306385 7.07429 0 6.88827 0 7.07429Z" fill="#DA1B1B"/>
<path d="M10.2633 9.05486C10.1758 9.14239 10.2962 9.53632 10.4056 9.53632C10.4603 9.53632 10.5041 9.59103 10.5041 9.66763C10.5041 9.83176 11.2919 11.4075 11.467 11.5935C11.5326 11.6701 11.5983 11.7795 11.5983 11.8342C11.5983 11.9765 12.5393 13.3333 12.9989 13.8476C14.0931 15.0731 16.0846 16.9224 16.8506 17.4257C17.0038 17.5242 17.2773 17.7431 17.4524 17.8962C17.6384 18.0604 17.9777 18.323 18.2184 18.4871C18.4591 18.6513 18.7546 18.8701 18.864 18.9686C18.9843 19.078 19.2798 19.2969 19.5205 19.461C19.7722 19.6361 20.0676 19.8549 20.1771 19.9534C20.2974 20.0628 20.5929 20.2817 20.8336 20.4458C21.0853 20.6099 21.3041 20.7741 21.3369 20.8069C21.3698 20.8397 21.7418 21.1352 22.1576 21.4634C22.5844 21.7917 22.9783 22.109 23.044 22.1747C23.1096 22.2294 23.5473 22.6233 24.0178 23.0501C25.6154 24.4835 26.8409 25.8185 27.585 26.9346C28.3072 28.0288 28.5917 28.5103 29.2373 29.7577C29.5765 30.4361 30.0799 31.3334 30.3315 31.7602C30.5942 32.1869 30.9224 32.734 31.0647 32.9857C31.2069 33.2374 31.3929 33.5109 31.4805 33.5875C31.5571 33.6641 31.6227 33.7845 31.6227 33.8392C31.6227 33.8939 31.6774 34.0033 31.7322 34.0799C31.7978 34.1565 32.3121 34.9225 32.892 35.7979C34.7413 38.5991 37.2799 40.8313 39.7748 41.8271C40.9565 42.2976 43.4295 42.4836 46.6684 42.3414C48.9225 42.2538 51.5049 42.3195 51.9536 42.4836C52.0958 42.5383 52.4131 42.5821 52.6648 42.5821C52.9165 42.5931 53.3213 42.6587 53.5621 42.7463C53.8028 42.8338 54.0982 42.9104 54.2186 42.9104C54.339 42.9104 54.5797 42.987 54.7548 43.0745C54.9189 43.1621 55.1378 43.2387 55.2253 43.2387C55.4004 43.2387 56.0022 43.5013 57.3919 44.1797C59.3943 45.1754 61.0138 46.3572 62.7208 48.0752C63.8588 49.2241 63.9026 49.2569 63.9682 48.9724C64.0558 48.6332 63.9463 47.4733 63.8041 47.2107C63.7494 47.1013 63.5852 46.7621 63.443 46.4666C63.1694 45.8539 62.6551 45.1207 61.8892 44.2344C61.5937 43.8733 61.3858 43.5232 61.3858 43.37C61.3858 42.9213 60.9591 42.221 60.4557 41.849C59.8211 41.3785 57.8734 40.3937 57.5779 40.3937C57.5232 40.3937 57.3262 40.3171 57.1621 40.2295C56.987 40.142 56.7572 40.0654 56.6478 40.0654C56.5493 40.0654 56.3743 40.0216 56.2648 39.9669C56.1663 39.9122 55.7068 39.759 55.2581 39.6277C53.759 39.1791 52.7961 38.8398 52.4569 38.6319C52.0958 38.4131 51.7566 37.8441 51.7566 37.4611C51.7566 37.1766 52.1724 35.8854 52.3037 35.7541C52.3694 35.6885 52.4131 35.5681 52.4131 35.4806C52.4131 35.3821 52.4788 35.1742 52.5663 35.01C52.6539 34.8568 52.7742 34.3754 52.8508 33.9486C53.2119 31.8258 52.063 30.469 48.3645 28.6197C47.8721 28.379 46.9748 27.9741 46.559 27.799C46.4386 27.7553 46.1104 27.613 45.8259 27.4927C45.5414 27.3614 45.235 27.2629 45.1474 27.2629C45.0599 27.2629 44.9505 27.2082 44.9176 27.1534C44.8848 27.0878 44.7754 27.044 44.6769 27.044C44.5894 27.044 44.3596 26.9784 44.1736 26.8908C43.9766 26.8033 43.0356 26.475 42.0726 26.1686C41.1097 25.8513 40.2453 25.5559 40.1468 25.5121C40.0483 25.4574 39.7748 25.3808 39.545 25.337C39.3042 25.3042 39.0744 25.2276 39.0088 25.1838C38.9541 25.1401 38.7243 25.0635 38.5164 25.0306C38.3085 24.9869 38.0349 24.9103 37.9146 24.8556C37.7942 24.8118 37.4769 24.7133 37.2033 24.6367C36.9298 24.5711 36.5139 24.4616 36.2732 24.4069C36.0325 24.3413 35.737 24.2428 35.6167 24.199C35.4963 24.1443 35.2228 24.0677 35.0148 24.0239C34.8069 23.9911 34.5662 23.9145 34.4677 23.8708C34.3802 23.827 33.9316 23.6738 33.4829 23.5425C33.0343 23.4112 32.5857 23.2689 32.4981 23.2252C32.3996 23.1704 32.1589 23.0938 31.951 23.0501C31.7431 23.0063 31.5242 22.9407 31.4586 22.8969C31.4039 22.8531 30.9771 22.6999 30.5285 22.5577C30.0799 22.4264 29.6641 22.2732 29.5984 22.2294C29.5437 22.1856 29.1716 22.0434 28.7777 21.9011C28.3838 21.7589 28.0227 21.6057 27.968 21.551C27.9023 21.5072 27.7929 21.4634 27.7054 21.4634C27.4865 21.4634 26.458 20.9929 23.8537 19.7236C22.0263 18.8263 20.3412 17.9072 19.9692 17.6117C19.9144 17.568 19.4658 17.2725 18.9844 16.9552C18.5029 16.6379 18.0652 16.3424 17.9995 16.2987C17.9448 16.2549 17.4305 15.8719 16.8615 15.4452C14.881 13.968 12.0032 11.1995 10.7886 9.59103C10.5588 9.28464 10.3618 9.03297 10.3509 9.01109C10.329 9.00014 10.2962 9.02203 10.2633 9.05486ZM59.1974 42.2101C60.3135 42.5821 60.6746 42.8666 60.9372 43.5341C61.1998 44.1797 60.7621 44.3329 60.226 43.7748C60.0509 43.5888 59.7335 43.3371 59.5256 43.2058C59.3177 43.0745 59.077 42.9104 59.0004 42.8338C58.9238 42.7572 58.7925 42.6915 58.705 42.6915C58.5627 42.6915 58.4314 42.4618 58.4314 42.1882C58.4314 41.9912 58.5846 41.9912 59.1974 42.2101ZM2.40674 15.9485C2.40674 16.0689 3.33684 17.9072 3.50097 18.1042C3.56662 18.1807 3.79641 18.4762 4.01526 18.7826C4.81405 19.8549 6.06147 21.1352 7.72471 22.5577C8.14051 22.9188 9.27851 23.7723 9.63961 24.0021C9.7928 24.1005 9.98977 24.2537 10.0773 24.3303C10.1648 24.4179 10.4275 24.6039 10.6682 24.7461C10.9089 24.8884 11.1278 25.0416 11.1606 25.0744C11.2262 25.1619 14.4542 27.0769 15.4828 27.6459C16.2925 28.1054 17.1679 28.5431 20.2427 30.0422C22.0482 30.9285 22.3874 31.1036 23.7114 31.9024C24.7072 32.5042 26.3048 33.7517 27.1036 34.5505C27.5522 34.9991 27.9352 35.3602 27.9571 35.3602C27.9899 35.3602 27.9461 35.2398 27.8805 35.0866C27.8148 34.9334 27.7163 34.8131 27.6616 34.8131C27.6178 34.8131 27.5741 34.7474 27.5741 34.6708C27.5741 34.5833 27.4756 34.3973 27.3552 34.255C27.2349 34.1128 27.1035 33.9377 27.0598 33.883C26.261 32.8325 25.6045 32.1979 23.5911 30.4909C23.3175 30.2501 21.512 29.0246 20.6695 28.4994C20.002 28.0726 18.6561 27.3176 17.2883 26.5844C16.96 26.3984 16.6427 26.2124 16.577 26.1686C16.4786 26.092 16.008 25.8404 14.4433 24.9869C13.4585 24.4616 10.9636 22.9188 10.5588 22.5905C10.5041 22.5358 10.2524 22.3717 10.0116 22.2294C9.77092 22.0872 9.53019 21.923 9.46453 21.8793C9.40982 21.8355 8.81894 21.3978 8.15146 20.9054C7.49492 20.413 6.92592 19.9753 6.89309 19.9425C6.86026 19.8987 6.59765 19.6798 6.29126 19.4501C5.67849 18.9905 4.89064 18.2683 3.42437 16.8239C2.86632 16.2768 2.40674 15.8829 2.40674 15.9485ZM14.8372 35.5462C14.7278 35.6556 16.5661 37.3626 17.7807 38.2708C18.3825 38.7195 18.9296 39.1243 18.9844 39.1681C19.2689 39.387 20.2537 39.956 20.3412 39.956C20.3959 39.956 20.5163 40.0216 20.5929 40.0873C20.6695 40.1639 20.9102 40.3061 21.1181 40.4155C22.5734 41.1049 23.1971 41.3785 23.3503 41.3785C23.4379 41.3785 23.5364 41.4222 23.5692 41.466C23.6567 41.6082 27.1036 42.6915 27.4865 42.6915C27.596 42.6915 27.771 42.7353 27.8805 42.801C27.9789 42.8557 28.2853 42.9542 28.5589 43.0089C29.5109 43.2168 30.0361 43.3481 30.2549 43.4466C30.3753 43.5013 30.8458 43.6545 31.2945 43.7967C31.7431 43.939 32.1589 44.0812 32.2246 44.1359C32.2793 44.1797 32.3887 44.2235 32.4762 44.2235C32.5638 44.2235 32.7826 44.2891 32.9686 44.3767C34.7632 45.1536 35.2446 45.3396 35.3103 45.2849C35.3431 45.2411 35.2337 45.0988 35.0586 44.9675C34.7851 44.7487 34.3036 44.3219 33.2641 43.3481C33.0999 43.1949 32.8045 42.9323 32.6075 42.7572C32.0604 42.2867 29.7625 40.5797 29.2701 40.2842C29.0294 40.142 28.8106 39.9888 28.7777 39.956C28.7449 39.9122 28.6464 39.8465 28.5589 39.8028C28.4713 39.759 28.0993 39.562 27.7382 39.3541C27.0598 38.9602 25.6701 38.2708 24.8932 37.9426C24.6525 37.8441 24.3789 37.7128 24.2914 37.669C24.1929 37.6143 23.9631 37.5377 23.7661 37.5049C23.5801 37.4611 23.3941 37.3736 23.3613 37.3189C23.3175 37.2642 23.1862 37.2204 23.0549 37.2204C22.8142 37.2313 22.8142 37.2313 23.033 37.3517C23.1534 37.4173 23.2737 37.5049 23.3066 37.5487C23.3394 37.5815 23.5801 37.7456 23.8537 37.9097C24.4336 38.249 25.495 39.19 25.495 39.3651C25.495 39.4307 25.4184 39.5511 25.3309 39.6277C25.1996 39.7371 24.8823 39.7262 23.7443 39.5839C22.9564 39.4854 22.2014 39.3541 22.0701 39.2994C21.9388 39.2557 21.5558 39.1243 21.2275 39.0259C19.5205 38.5116 16.0846 36.6076 15.0889 35.6337C14.9904 35.5462 14.881 35.5024 14.8372 35.5462Z" fill="#DA1B1B"/>
<path d="M33.5385 41.1924C35.5847 43.0745 40.8261 48.4253 41.1544 48.9505C41.2857 49.1475 41.1325 49.3663 40.8808 49.3663C40.7605 49.3554 40.4541 49.2679 40.2133 49.1475C39.9726 49.0271 39.7428 48.9396 39.6991 48.9286C39.5568 48.9286 38.4735 48.2393 38.189 47.9767C37.8607 47.6703 37.6857 47.6484 37.8826 47.9329C38.2 48.3925 39.7866 49.9572 40.7823 50.8107C41.231 51.1937 42.4237 52.0144 42.8286 52.2113C43.4851 52.5396 43.5508 52.5943 43.5508 52.8022C43.5508 52.9882 43.496 52.9992 42.9489 52.9335C42.6207 52.9007 42.3471 52.9007 42.3471 52.9554C42.3471 53.032 42.9927 53.3493 43.7696 53.6448C44.3386 53.8746 45.9252 53.8417 46.3739 53.601C46.5708 53.4916 46.8444 53.415 46.9648 53.4369C47.2055 53.4697 47.2274 53.5025 47.5666 54.2357C47.9824 55.1329 48.9453 56.3694 49.2189 56.3694C49.2736 56.3694 49.383 56.4351 49.4487 56.5226C49.58 56.6758 51.0791 57.0807 51.1666 56.9931C51.1994 56.9603 50.9915 56.7633 50.718 56.5445C49.952 55.9646 49.58 55.4174 49.569 54.8813C49.569 54.3013 49.8098 53.8308 50.3131 53.4369C51.0462 52.8788 51.4949 52.7256 52.5672 52.7147C53.4426 52.7147 53.6177 52.7366 54.0007 52.9773C54.2414 53.1196 54.504 53.3165 54.5806 53.415C54.7885 53.6667 55.1496 54.4983 55.1496 54.739C55.1496 55.1111 55.3575 54.9579 55.4341 54.5311C55.5873 53.6995 55.5435 52.8022 55.3356 52.5615C55.0402 52.2332 54.2414 52.0253 53.0159 51.9378C50.9259 51.8065 49.8645 51.4563 48.9234 50.6028C47.9496 49.7274 47.9933 49.629 49.383 49.5633C50.3678 49.5086 51.2104 49.3335 51.9216 49.0381C52.042 48.9834 52.3921 48.8302 52.6876 48.7098C52.994 48.5785 53.6286 48.283 54.1101 48.0533C55.9484 47.1779 57.0754 46.9153 58.9575 46.9153C60.3253 46.9153 60.6864 46.8387 60.1831 46.6855C60.0627 46.6526 59.9642 46.5651 59.9642 46.5104C59.9642 46.4557 59.9205 46.4119 59.8657 46.4119C59.7782 46.4119 58.8372 45.8429 58.4761 45.5694C58.3119 45.438 57.6992 45.1098 56.8457 44.694C56.4299 44.4861 55.9922 44.2672 55.8937 44.2125C55.7843 44.1578 55.6529 44.114 55.5982 44.114C55.5435 44.114 55.3575 44.0593 55.1824 43.9827C54.7338 43.7967 54.0007 43.5888 53.1253 43.3809C52.0092 43.1183 47.8183 43.1292 45.9581 43.3809C43.1897 43.7639 42.7082 43.8076 41.417 43.7529C40.093 43.6982 39.6115 43.6107 38.2984 43.2168C37.4996 42.976 37.3574 42.9213 36.6461 42.593C36.3726 42.4727 36.11 42.3633 36.0772 42.3633C36.0334 42.3633 35.6832 42.1663 35.2893 41.9256C34.8954 41.6848 34.5452 41.4879 34.5233 41.4879C34.4686 41.4879 33.5495 40.8642 32.9805 40.4265C32.2364 39.8684 32.51 40.2404 33.5385 41.1924Z" fill="#DA1B1B"/>
</svg>
