<svg width="60" height="80" viewBox="0 0 60 80" fill="none" xmlns="http://www.w3.org/2000/svg">
<path d="M53.8647 11.8644C48.1507 4.29243 39.4114 0 30 0C20.5886 0 11.8493 4.29243 6.13526 11.8644C-2.04509 22.7119 -2.04509 37.7412 6.13526 48.5887L30 80L53.8647 48.5887C62.0451 37.7412 62.0451 22.7119 53.8647 11.8644Z" fill="#93C5FD" fill-opacity="0.1"/>
<path d="M30 32L23.875 38.125C23.6458 38.3542 23.3542 38.4688 23 38.4688C22.6458 38.4688 22.3542 38.3542 22.125 38.125C21.8958 37.8958 21.7812 37.6042 21.7812 37.25C21.7812 36.8958 21.8958 36.6042 22.125 36.375L28.25 30.25L22.125 24.125C21.8958 23.8958 21.7812 23.6042 21.7812 23.25C21.7812 22.8958 21.8958 22.6042 22.125 22.375C22.3542 22.1458 22.6458 22.0312 23 22.0312C23.3542 22.0312 23.6458 22.1458 23.875 22.375L30 28.5L36.125 22.375C36.3542 22.1458 36.6458 22.0312 37 22.0312C37.3542 22.0312 37.6458 22.1458 37.875 22.375C38.1042 22.6042 38.2188 22.8958 38.2188 23.25C38.2188 23.6042 38.1042 23.8958 37.875 24.125L31.75 30.25L37.875 36.375C38.1042 36.6042 38.2188 36.8958 38.2188 37.25C38.2188 37.6042 38.1042 37.8958 37.875 38.125C37.6458 38.3542 37.3542 38.4688 37 38.4688C36.6458 38.4688 36.3542 38.3542 36.125 38.125L30 32Z" fill="#93C5FD"/>
</svg>
