<svg width="68" height="75" viewBox="0 0 68 75" fill="none" xmlns="http://www.w3.org/2000/svg">
<path d="M63.0909 9.27274H4.90909C3.30246 9.27274 2 10.5752 2 12.1818V70.3636C2 71.9703 3.30246 73.2727 4.90909 73.2727H63.0909C64.6976 73.2727 66 71.9703 66 70.3636V12.1818C66 10.5752 64.6976 9.27274 63.0909 9.27274Z" stroke="#1C1C1C" stroke-width="3.25" stroke-linecap="round" stroke-linejoin="round"/>
<path d="M51.4541 2V9.27273" stroke="#1C1C1C" stroke-width="3.25" stroke-linecap="round" stroke-linejoin="round"/>
<path d="M16.5459 2V9.27273" stroke="#1C1C1C" stroke-width="3.25" stroke-linecap="round" stroke-linejoin="round"/>
<path d="M2 26.7273H66" stroke="#1C1C1C" stroke-width="3.25" stroke-linecap="round" stroke-linejoin="round"/>
<path d="M34.5709 42.523C35.1201 42.523 35.5652 42.9682 35.5652 43.5173V50.2416C35.5652 50.7907 35.12 51.2359 34.5709 51.2359C34.0218 51.2359 33.5767 50.7907 33.5767 50.2416V43.5173C33.5767 42.9682 34.0218 42.523 34.5709 42.523Z" fill="#1C1C1C" stroke="#1C1C1C"/>
<path d="M33.71 49.745L33.71 49.7449C33.9844 49.2693 34.5925 49.1062 35.068 49.3806L35.068 49.3806L40.8957 52.7428L40.8958 52.7428C41.3714 53.0171 41.5345 53.6252 41.2601 54.1007L41.2601 54.1008C40.9857 54.5765 40.3777 54.7396 39.9019 54.4652L34.0743 51.103C34.0743 51.103 34.0743 51.103 34.0743 51.103C33.5987 50.8286 33.4356 50.2206 33.71 49.745Z" fill="#1C1C1C" stroke="#1C1C1C"/>
<path d="M22.0882 44.7828V45.2828H22.5882H26.6974C27.2465 45.2828 27.6917 45.7279 27.6917 46.2771C27.6917 46.8262 27.2465 47.2713 26.6974 47.2713H21.0939C20.5448 47.2713 20.0996 46.8262 20.0996 46.2771V40.6735C20.0996 40.1244 20.5448 39.6793 21.0939 39.6793C21.643 39.6793 22.0882 40.1244 22.0882 40.6735V44.7828Z" fill="#1C1C1C" stroke="#1C1C1C"/>
<path d="M25.1516 40.8272L25.1529 40.826L25.1534 40.8255L25.1535 40.8254C27.0161 38.9617 29.3905 37.6911 31.9745 37.1763L31.8959 36.7816L31.9745 37.1763C34.559 36.6614 37.2381 36.9246 39.6731 37.9326C42.108 38.9406 44.1894 40.6481 45.6535 42.8391L45.6536 42.8391C47.1179 45.0302 47.8996 47.6063 47.8996 50.2416C47.8996 52.8769 47.1179 55.4531 45.6536 57.644L45.6535 57.644C44.1894 59.8351 42.108 61.5426 39.6731 62.5506L39.6731 62.5506C37.2381 63.5586 34.559 63.8217 31.9745 63.3068C29.39 62.792 27.0162 61.5221 25.1536 59.6578L25.1535 59.6577C24.7654 59.2695 24.7656 58.6398 25.1541 58.2517C25.5426 57.8636 26.1721 57.8638 26.5602 58.2523L26.5602 58.2523C28.1449 59.8382 30.1643 60.9185 32.363 61.3567L32.363 61.3567C34.5618 61.7947 36.8411 61.5707 38.9124 60.7133C40.984 59.8558 42.7546 58.4031 44.0002 56.5391C45.246 54.6752 45.911 52.4836 45.911 50.2416C45.911 47.9996 45.246 45.8081 44.0002 43.9441C42.7546 42.0801 40.984 40.6274 38.9125 39.7699C36.8411 38.9124 34.5618 38.6885 32.363 39.1265L32.4607 39.6169L32.363 39.1265C30.1644 39.5646 28.145 40.6449 26.5604 42.2307C26.5603 42.2308 26.5603 42.2308 26.5602 42.2309L26.5589 42.2322L26.5584 42.2327L21.7959 46.9812C21.4071 47.3689 20.7775 47.368 20.3898 46.9791C20.0021 46.5902 20.003 45.9607 20.3919 45.573L20.0388 45.2189L20.3919 45.573L25.1516 40.8272ZM25.1516 40.8272L25.1529 40.826L25.1534 40.8255L25.1535 40.8253L24.7998 40.4719L25.1442 40.8344L25.1461 40.8326L25.1489 40.8299L25.1516 40.8272ZM24.701 40.9619C24.6769 40.9546 24.6471 40.941 24.6151 40.9233C24.6666 40.9429 24.7196 40.9585 24.7603 40.9665C24.7389 40.9657 24.7184 40.9643 24.701 40.9619ZM24.9078 40.96C24.8991 40.9616 24.8874 40.963 24.8738 40.9641C24.8939 40.9611 24.9131 40.9577 24.9278 40.9546C24.9206 40.9567 24.9137 40.9586 24.9078 40.96ZM24.994 40.9326C24.9905 40.934 24.9859 40.9357 24.9805 40.9376C24.9876 40.9349 24.9944 40.9322 24.9999 40.93C24.9978 40.9309 24.9958 40.9318 24.994 40.9326ZM25.0369 40.9121C25.0361 40.9125 25.0353 40.9129 25.0344 40.9134L25.0369 40.9121ZM25.1492 40.1344C25.1508 40.1329 25.1524 40.1314 25.154 40.1299C25.1596 40.1375 25.1652 40.1453 25.1708 40.1534C25.1639 40.147 25.1567 40.1407 25.1492 40.1344ZM25.2966 40.4787C25.2931 40.4411 25.2843 40.3912 25.272 40.3419C25.2842 40.3721 25.2931 40.3996 25.2972 40.4212C25.2979 40.438 25.2976 40.458 25.2966 40.4787ZM25.275 40.6256C25.2788 40.6117 25.2832 40.5938 25.2872 40.5754C25.2854 40.5872 25.2836 40.5973 25.2818 40.6048C25.2799 40.6109 25.2776 40.6181 25.275 40.6256ZM25.2496 40.6899C25.2522 40.6844 25.2551 40.6778 25.2581 40.671C25.2562 40.6756 25.2545 40.6796 25.2532 40.6827C25.2521 40.6849 25.2509 40.6873 25.2496 40.6899ZM25.2317 40.7238C25.2326 40.7223 25.2335 40.7206 25.2345 40.7189C25.2338 40.7202 25.2331 40.7213 25.2326 40.7223C25.2323 40.7228 25.232 40.7233 25.2317 40.7238Z" fill="#1C1C1C" stroke="#1C1C1C"/>
</svg>
