<svg width="68" height="75" viewBox="0 0 68 75" fill="none" xmlns="http://www.w3.org/2000/svg">
<path d="M63.0909 9.27274H4.90909C3.30246 9.27274 2 10.5752 2 12.1818V70.3636C2 71.9703 3.30246 73.2727 4.90909 73.2727H63.0909C64.6976 73.2727 66 71.9703 66 70.3636V12.1818C66 10.5752 64.6976 9.27274 63.0909 9.27274Z" stroke="#1C1C1C" stroke-width="3.25" stroke-linecap="round" stroke-linejoin="round"/>
<path d="M51.4541 2V9.27273" stroke="#1C1C1C" stroke-width="3.25" stroke-linecap="round" stroke-linejoin="round"/>
<path d="M16.5459 2V9.27273" stroke="#1C1C1C" stroke-width="3.25" stroke-linecap="round" stroke-linejoin="round"/>
<path d="M2 26.7273H66" stroke="#1C1C1C" stroke-width="3.25" stroke-linecap="round" stroke-linejoin="round"/>
<path d="M45.443 50.0057C45.443 50.583 45.4051 51.1592 45.327 51.7329C45.3447 51.6028 45.3625 51.4702 45.3803 51.3402C45.2265 52.4759 44.925 53.5879 44.479 54.6431C44.5287 54.5247 44.5795 54.4065 44.6269 54.2904C44.1952 55.3103 43.6335 56.2697 42.9594 57.1475C43.0363 57.047 43.1132 56.9488 43.1899 56.8495C42.51 57.7307 41.7177 58.5199 40.839 59.2013C40.9395 59.1244 41.0376 59.0475 41.1369 58.9706C40.2594 59.6449 39.3015 60.2068 38.2808 60.6387C38.3992 60.589 38.5174 60.538 38.6334 60.4908C37.5773 60.9343 36.4667 61.2384 35.3314 61.3922C35.4616 61.3745 35.5941 61.3568 35.7241 61.3389C34.5793 61.4893 33.418 61.4893 32.2709 61.3389C32.401 61.3568 32.5335 61.3745 32.6636 61.3922C31.5283 61.2384 30.4165 60.9368 29.3617 60.4908C29.48 60.5405 29.5982 60.5913 29.7142 60.6387C28.6947 60.2068 27.7356 59.6449 26.8581 58.9706C26.9586 59.0475 27.0568 59.1244 27.1561 59.2013C26.275 58.521 25.4862 57.7284 24.8051 56.8495C24.8819 56.95 24.9588 57.0482 25.0357 57.1475C24.3615 56.2697 23.7998 55.3114 23.3682 54.2904C23.4178 54.4088 23.4687 54.5272 23.516 54.6431C23.0725 53.5866 22.7685 52.4758 22.6148 51.3402C22.6325 51.4702 22.6503 51.6028 22.668 51.7329C22.5178 50.5878 22.5178 49.426 22.668 48.2786C22.6503 48.4086 22.6325 48.5411 22.6148 48.6713C22.7685 47.5356 23.0701 46.4236 23.516 45.3684C23.4663 45.4867 23.4155 45.605 23.3682 45.7209C23.7998 44.7012 24.3615 43.7417 25.0357 42.8639C24.9588 42.9645 24.8819 43.0627 24.8051 43.162C25.4851 42.2807 26.2774 41.4916 27.1561 40.8102C27.0556 40.8871 26.9574 40.964 26.8581 41.0409C27.7356 40.3666 28.6935 39.8046 29.7142 39.3728C29.5959 39.4225 29.4776 39.4734 29.3617 39.5207C30.4178 39.0771 31.5283 38.773 32.6636 38.6192C32.5335 38.637 32.401 38.6547 32.2709 38.6725C33.4157 38.5222 34.577 38.5222 35.7241 38.6725C35.5941 38.6547 35.4616 38.637 35.3314 38.6192C36.4669 38.773 37.5786 39.0747 38.6334 39.5207C38.5151 39.471 38.3968 39.4201 38.2808 39.3728C39.3004 39.8046 40.2594 40.3666 41.1369 41.0409C41.0364 40.964 40.9382 40.8871 40.839 40.8102C41.72 41.4904 42.5088 42.2831 43.1899 43.162C43.1132 43.0615 43.0363 42.9633 42.9594 42.8639C43.6335 43.7417 44.1952 44.7 44.6269 45.7209C44.5772 45.6026 44.5264 45.4843 44.479 45.3684C44.9225 46.4248 45.2265 47.5357 45.3803 48.6713C45.3625 48.5411 45.3447 48.4086 45.327 48.2786C45.4039 48.8523 45.443 49.4284 45.443 50.0057C45.443 50.3843 45.6086 50.7842 45.8745 51.0528C46.1313 51.3095 46.551 51.5023 46.9213 51.4845C47.302 51.4668 47.6994 51.3426 47.9678 51.0528C48.234 50.7629 48.403 50.4079 48.3996 50.0057C48.3971 48.527 48.1748 47.0245 47.716 45.6168C47.2725 44.2504 46.6374 42.9313 45.8001 41.7602C45.3566 41.1356 44.8753 40.5358 44.3431 39.9857C43.8074 39.432 43.2255 38.9446 42.6141 38.4773C41.4729 37.6019 40.1991 36.9417 38.8532 36.4449C37.4695 35.9362 35.9889 35.67 34.519 35.6109C33.0289 35.5517 31.5033 35.7351 30.0701 36.1432C28.6958 36.5336 27.3524 37.1369 26.1579 37.9237C24.9752 38.7021 23.8837 39.645 22.9826 40.7369C22.4918 41.3344 22.0282 41.9578 21.632 42.6203C21.2323 43.2852 20.9106 43.9867 20.6149 44.7048C20.0567 46.0676 19.7516 47.5204 19.6393 48.9875C19.5234 50.4758 19.6653 52.0019 20.0153 53.4498C20.356 54.848 20.9236 56.218 21.671 57.4484C22.4043 58.6551 23.3244 59.7789 24.3793 60.7159C25.4436 61.6599 26.6357 62.4727 27.933 63.0582C28.6426 63.38 29.3734 63.664 30.1233 63.8745C30.892 64.0898 31.6785 64.22 32.4707 64.3123C33.9704 64.4897 35.496 64.3892 36.9706 64.0898C38.3803 63.8035 39.7616 63.2736 41.0176 62.5732C42.2499 61.8847 43.4006 60.9974 44.3763 59.973C45.3603 58.9437 46.2118 57.7607 46.8457 56.4853C47.4937 55.1838 47.9691 53.7938 48.1879 52.3564C48.3061 51.5733 48.3889 50.789 48.3889 49.9962C48.3889 49.6177 48.2234 49.2178 47.9573 48.9494C47.7007 48.6926 47.2808 48.4998 46.9106 48.5175C46.5299 48.5352 46.1324 48.6595 45.864 48.9494C45.6122 49.2486 45.443 49.6035 45.443 50.0057Z" fill="#1C1C1C"/>
<path d="M32.5273 48.5562V51.224V55.4534V56.4235C32.5273 56.8021 32.6931 57.2018 32.9592 57.4704C33.216 57.7272 33.6359 57.92 34.0062 57.9023C34.3871 57.8845 34.7845 57.7603 35.0531 57.4704C35.3194 57.1807 35.485 56.8257 35.485 56.4235V53.7558V49.5264V48.5562C35.485 48.1778 35.3194 47.7779 35.0531 47.5094C34.7965 47.2526 34.3764 47.0598 34.0062 47.0775C33.6252 47.0953 33.2278 47.2195 32.9592 47.5094C32.6954 47.7992 32.5273 48.1576 32.5273 48.5562Z" fill="#1C1C1C"/>
<path d="M32.5281 43.5879V43.8245C32.5187 44.028 32.5636 44.2173 32.6558 44.3947C32.715 44.5781 32.8191 44.7378 32.9611 44.8715C33.0936 45.017 33.2544 45.1176 33.4379 45.1767C33.6153 45.269 33.8046 45.3128 34.0081 45.3045C34.1381 45.2867 34.2708 45.269 34.4008 45.2512C34.6516 45.1803 34.8681 45.0525 35.0538 44.8703C35.1307 44.7698 35.2076 44.6716 35.2845 44.5722C35.417 44.3415 35.4857 44.0931 35.4857 43.8269V43.5903C35.495 43.3868 35.4501 43.1975 35.358 43.0201C35.2988 42.8367 35.1947 42.677 35.0527 42.5433C34.9202 42.3978 34.7593 42.2972 34.5759 42.2381C34.3985 42.1458 34.2091 42.1021 34.0057 42.1103C33.8756 42.1281 33.743 42.1458 33.613 42.1636C33.3621 42.2346 33.1457 42.3623 32.9599 42.5445C32.883 42.6451 32.8061 42.7433 32.7292 42.8426C32.5968 43.0733 32.5281 43.3217 32.5281 43.5879Z" fill="#1C1C1C"/>
</svg>
