<svg width="25" height="25" viewBox="0 0 25 25" fill="none" xmlns="http://www.w3.org/2000/svg">
<path d="M16.2246 5.17371V18.2011L14.8289 16.9918V16.9905C14.5252 16.7273 14.0331 16.7273 13.7278 16.9905C13.4241 17.255 13.4241 17.6814 13.7278 17.9445L16.4494 20.3026C16.5968 20.4289 16.7942 20.5 17.0008 20.5C17.2073 20.5 17.4048 20.4289 17.5506 20.3026L20.2722 17.9445C20.5759 17.6813 20.5759 17.255 20.2722 16.9905C19.9684 16.7273 19.4763 16.7273 19.1711 16.9905L17.7799 18.2012V5.17374C17.7799 4.80133 17.4321 4.5 17.0023 4.5C16.5725 4.5 16.2246 4.80131 16.2246 5.17371Z" fill="#6b7280"/>
<path d="M7.22463 19.8263V6.79888L5.8289 8.00817V8.00949C5.52515 8.27267 5.03306 8.27267 4.72781 8.00949C4.42406 7.74499 4.42406 7.31863 4.72781 7.05547L7.44944 4.69738C7.59676 4.57106 7.79419 4.5 8.00076 4.5C8.20732 4.5 8.40476 4.57106 8.55057 4.69738L11.2722 7.05547C11.5759 7.31865 11.5759 7.74501 11.2722 8.00949C10.9684 8.27267 10.4764 8.27267 10.1711 8.00949L8.77992 6.79884V19.8263C8.77992 20.1987 8.43212 20.5 8.00231 20.5C7.5725 20.5 7.22463 20.1987 7.22463 19.8263Z" fill="#6b7280"/>
</svg>
