<svg width="66" height="66" viewBox="0 0 66 66" fill="none" xmlns="http://www.w3.org/2000/svg">
<path d="M27.2614 39.6643L28.4524 40.855L29.6434 39.6643L45.8974 23.4103C46.245 23.0627 46.6394 22.8929 47.1883 22.8929C47.7415 22.8929 48.1368 23.0636 48.4833 23.4103C48.8399 23.7666 49.0007 24.1527 49.0007 24.6649C49.0007 25.1728 48.8407 25.5579 48.4833 25.9154L29.7052 44.6935C29.7058 44.6929 29.7046 44.694 29.7052 44.6935C29.2733 45.1234 28.8373 45.294 28.3271 45.294C27.8169 45.294 27.4349 45.1289 27.0769 44.7425L27.0552 44.7189L27.0324 44.6961L17.6017 35.2614L17.5776 35.2371L17.5525 35.214C17.1628 34.8546 16.9993 34.474 16.9993 33.9702C16.9993 33.4574 17.1694 33.0223 17.6014 32.5903C17.949 32.2427 18.3435 32.0729 18.8924 32.0729C19.4455 32.0729 19.8409 32.2435 20.1874 32.5903L27.2614 39.6643ZM32.9999 65.0001C28.5598 65.0001 24.4087 64.159 20.5295 62.4858C16.6181 60.799 13.2326 58.5172 10.3577 55.6422C7.48276 52.7673 5.20102 49.3819 3.514 45.4704C1.84102 41.5913 1 37.4402 1 33C1 28.5596 1.84102 24.4088 3.514 20.5296C5.20102 16.6181 7.48276 13.2327 10.3577 10.3577C13.2326 7.48276 16.6181 5.20105 20.5295 3.51403C24.4087 1.84102 28.5598 1 32.9999 1C37.4401 1 41.5912 1.84102 45.4703 3.51403C49.3818 5.20105 52.7672 7.48276 55.6421 10.3577C58.5171 13.2327 60.7989 16.6181 62.486 20.5296C64.1589 24.4088 65 28.5596 65 33C65 37.4402 64.1589 41.5913 62.486 45.4704C60.7989 49.3819 58.5171 52.7673 55.6421 55.6422C52.7672 58.5172 49.3818 60.799 45.4703 62.4858C41.5912 64.159 37.4401 65.0001 32.9999 65.0001ZM32.9999 61.2945C40.8001 61.2945 47.5025 58.5212 53.0118 53.0119C58.5211 47.5025 61.2944 40.8002 61.2944 33C61.2944 25.1996 58.5211 18.4975 53.0118 12.9882C47.5025 7.47886 40.8001 4.70543 32.9999 4.70543C25.1998 4.70543 18.4975 7.47886 12.9882 12.9882C7.47884 18.4975 4.70541 25.1996 4.70541 33C4.70541 40.8002 7.47884 47.5025 12.9882 53.0119C18.4975 58.5212 25.1998 61.2945 32.9999 61.2945Z" fill="#0DBC81"/>
<path d="M29.7052 44.6935L48.4833 25.9154C48.8407 25.5579 49.0007 25.1728 49.0007 24.6649C49.0007 24.1527 48.8399 23.7666 48.4833 23.4103C48.1368 23.0636 47.7415 22.8929 47.1883 22.8929C46.6394 22.8929 46.245 23.0627 45.8974 23.4103L29.6434 39.6643L28.4524 40.855L27.2614 39.6643L20.1874 32.5903C19.8409 32.2435 19.4455 32.0729 18.8924 32.0729C18.3435 32.0729 17.949 32.2427 17.6014 32.5903C17.1694 33.0223 16.9993 33.4574 16.9993 33.9702C16.9993 34.474 17.1628 34.8546 17.5525 35.214L17.5776 35.2371L17.6017 35.2614L27.0324 44.6961L27.0552 44.7189L27.0769 44.7425C27.4349 45.1289 27.8169 45.294 28.3271 45.294C28.8373 45.294 29.2733 45.1234 29.7052 44.6935ZM29.7052 44.6935C29.7046 44.694 29.7058 44.6929 29.7052 44.6935ZM32.9999 65.0001C28.5598 65.0001 24.4087 64.159 20.5295 62.4858C16.6181 60.799 13.2326 58.5172 10.3577 55.6422C7.48276 52.7673 5.20102 49.3819 3.514 45.4704C1.84102 41.5913 1 37.4402 1 33C1 28.5596 1.84102 24.4088 3.514 20.5296C5.20102 16.6181 7.48276 13.2327 10.3577 10.3577C13.2326 7.48276 16.6181 5.20105 20.5295 3.51403C24.4087 1.84102 28.5598 1 32.9999 1C37.4401 1 41.5912 1.84102 45.4703 3.51403C49.3818 5.20105 52.7672 7.48276 55.6421 10.3577C58.5171 13.2327 60.7989 16.6181 62.486 20.5296C64.1589 24.4088 65 28.5596 65 33C65 37.4402 64.1589 41.5913 62.486 45.4704C60.7989 49.3819 58.5171 52.7673 55.6421 55.6422C52.7672 58.5172 49.3818 60.799 45.4703 62.4858C41.5912 64.159 37.4401 65.0001 32.9999 65.0001ZM32.9999 61.2945C40.8001 61.2945 47.5025 58.5212 53.0118 53.0119C58.5211 47.5025 61.2944 40.8002 61.2944 33C61.2944 25.1996 58.5211 18.4975 53.0118 12.9882C47.5025 7.47886 40.8001 4.70543 32.9999 4.70543C25.1998 4.70543 18.4975 7.47886 12.9882 12.9882C7.47884 18.4975 4.70541 25.1996 4.70541 33C4.70541 40.8002 7.47884 47.5025 12.9882 53.0119C18.4975 58.5212 25.1998 61.2945 32.9999 61.2945Z" stroke="#0DBC81" stroke-width="1.16667"/>
</svg>
