<svg width="64" height="64" viewBox="0 0 64 64" fill="none" xmlns="http://www.w3.org/2000/svg">
<path d="M18.0977 31.6993C18.0977 28.3846 18.1028 25.0673 18.09 21.7551C18.09 21.2944 18.3958 21.0077 18.8583 21.0077C19.714 21.0026 20.5749 21 21.4306 21.0077C21.9163 21.0128 22.199 21.3072 22.1938 21.7602C22.181 24.6936 22.1861 27.632 22.1861 30.5654V30.7266C22.1912 31.0517 22.3351 31.2897 22.6358 31.4177C22.9262 31.5406 23.1986 31.4766 23.435 31.2258C24.2984 30.3043 25.1592 29.3803 26.0175 28.4562C26.5443 27.888 27.0788 27.3274 27.6005 26.7566C27.7983 26.5416 28.027 26.4392 28.3226 26.4444C29.3993 26.452 30.4811 26.452 31.5578 26.4444C31.8764 26.4444 32.1283 26.5416 32.2619 26.836C32.3981 27.1406 32.3339 27.4119 32.1052 27.6602C30.4888 29.4417 28.8776 31.2258 27.2638 33.0073C27.1353 33.1506 27.0094 33.2991 26.9092 33.4629C26.7293 33.7521 26.7293 34.0362 26.8964 34.3306C27.0762 34.648 27.3306 34.904 27.5825 35.1625C29.538 37.1641 31.4987 39.1658 33.4594 41.1623C33.6958 41.4054 33.7652 41.6716 33.647 41.9839C33.5339 42.2757 33.3103 42.4088 32.9429 42.4088C31.7454 42.4088 30.5453 42.4037 29.3479 42.4088C29.078 42.4088 28.8699 42.3244 28.6772 42.1196C26.9375 40.2997 25.1849 38.49 23.4375 36.6778C23.1883 36.4167 22.9108 36.3502 22.623 36.4705C22.3326 36.5856 22.181 36.8314 22.181 37.1872V41.6486C22.181 42.1298 21.9368 42.3781 21.4589 42.3807H18.8275C18.3007 42.3807 18.0951 42.1733 18.0951 41.6563L18.0977 31.6993ZM34.4256 28.3641C34.4256 26.1705 34.4333 23.9743 34.4179 21.7807C34.4127 21.2841 34.7031 21 35.2094 21C36.0419 21.0051 36.8694 21 37.6994 21C38.1851 21 38.4626 21.2713 38.4626 21.7525C38.4677 23.0324 38.4677 24.3147 38.4703 25.5946C38.4703 26.1474 38.7555 26.4341 39.3055 26.4341H42.7617C43.1266 26.4341 43.3656 26.6312 43.4375 26.987C43.4735 27.1585 43.4607 27.33 43.4658 27.5066V29.6285C43.4658 30.184 43.2165 30.4323 42.6589 30.4323C41.5539 30.4323 40.449 30.4272 39.344 30.4272C38.7787 30.4272 38.4883 30.7113 38.4832 31.2667C38.478 32.3955 38.46 33.5192 38.4754 34.648C38.4986 36.3681 39.822 37.9525 41.5411 38.3569C42.0473 38.4772 42.5613 38.4977 43.0752 38.426C43.4941 38.3672 43.7973 38.5898 43.8461 39.0096C43.9515 39.9029 44.0466 40.7988 44.1391 41.6921C44.175 42.0326 43.9258 42.3448 43.5737 42.4011C42.6255 42.5624 41.6773 42.5061 40.7445 42.2962C37.4142 41.5539 34.9678 38.9021 34.4898 35.5413C34.441 35.2086 34.4256 34.8758 34.4256 34.5456V28.3641ZM63.9952 38.8458C63.9952 38.5412 63.7613 38.3288 63.4555 38.3134C63.2474 38.3057 63.0418 38.298 62.8336 38.2801C61.7698 38.2008 61.2224 37.7042 61.0297 36.6599C60.8807 35.8638 60.8858 35.055 60.8807 34.2461C60.873 31.9245 60.8755 29.6029 60.8755 27.2814C60.8755 27.2122 60.8755 27.1483 60.8704 27.0817C60.8421 26.7054 60.5697 26.4367 60.1869 26.4367C59.29 26.4316 58.3906 26.4316 57.4938 26.4367C57.0878 26.4367 56.8 26.7259 56.782 27.1252C56.7769 27.2225 56.782 27.3223 56.782 27.4375C56.7049 27.3965 56.6458 27.3684 56.5893 27.3402C54.9704 26.493 53.2538 26.2191 51.4499 26.5186C46.8578 27.2865 43.8641 31.8682 45.0051 36.363C46.4544 42.0658 53.318 44.3362 57.9101 40.6248C58.018 40.5377 58.0617 40.5403 58.1465 40.658C58.6193 41.3312 59.2438 41.8175 60.0198 42.1119C60.8755 42.437 61.7672 42.4805 62.6718 42.4165C62.993 42.3935 63.3116 42.3474 63.6046 42.2015C63.8127 42.0965 63.9823 41.9404 63.9874 41.7024C64.0054 40.7502 64.0003 39.798 63.9952 38.8458ZM52.8221 38.4337C50.589 38.426 48.8134 36.6164 48.8211 34.3485C48.8288 32.2035 50.6533 30.422 52.8426 30.4272C55.0886 30.4323 56.8617 32.2291 56.8565 34.5021C56.8488 36.6445 55.0115 38.4363 52.8221 38.4337ZM8.06816 26.4034C3.80246 26.4111 0.096945 29.6925 0.00186607 34.2513C-0.0957826 38.9661 3.65341 42.3397 7.83946 42.4447C12.3159 42.5573 16.024 39.0378 16.101 34.5917C16.1756 30.0662 12.6165 26.4546 8.06816 26.4034ZM8.03989 38.4337C5.83766 38.4337 4.03116 36.6317 4.02602 34.4304C4.02088 32.2266 5.82481 30.4272 8.0476 30.4195C10.2653 30.4144 12.0615 32.2087 12.0615 34.4253C12.0615 36.642 10.2653 38.4337 8.03989 38.4337Z" fill="#007DC1"/>
</svg>
