<svg width="64" height="64" viewBox="0 0 64 64" fill="none" xmlns="http://www.w3.org/2000/svg">
<path d="M27.4058 0H36.0263V51.5429H27.4058V0Z" fill="#6B0AEA"/>
<path fill-rule="evenodd" clip-rule="evenodd" d="M38.1146 63.9733L46.7285 58.6355V14.0117C44.1748 12.1181 41.2328 10.8146 38.1146 10.1952V63.9733ZM16.6768 58.6622L25.2973 64V10.2219C22.1788 10.8319 19.2345 12.1263 16.6768 14.0117V58.6622ZM48.8169 2.44873V57.7014L52.8202 55.2194C54.2537 54.2764 55.4263 52.9873 56.2298 51.4713C57.0333 49.9552 57.4418 48.2611 57.4174 46.5455V20.4504C57.4374 12.9241 48.8169 2.44873 48.8169 2.44873ZM6.00119 46.5254C5.97493 48.2414 6.38254 49.9362 7.18622 51.4526C7.98989 52.9689 9.16357 54.2577 10.5984 55.1993L14.6017 57.6814V2.44873C14.6017 2.44873 6.00119 12.9241 6.00119 20.4504V46.5254Z" fill="#6B0AEA"/>
</svg>
